<svg
   xmlns:dc="http://purl.org/dc/elements/1.1/"
   xmlns:cc="http://creativecommons.org/ns#"
   xmlns:rdf="http://www.w3.org/1999/02/22-rdf-syntax-ns#"
   xmlns:svg="http://www.w3.org/2000/svg"
   xmlns="http://www.w3.org/2000/svg"
   viewBox="0 0 1083.7333 264.58333"
   version="1.1"
   id="logo-wide">
  <defs
     id="defs954" />
  <metadata
     id="metadata957">
    <rdf:RDF>
      <cc:Work
         rdf:about="">
        <dc:format>image/svg+xml</dc:format>
        <dc:type
           rdf:resource="http://purl.org/dc/dcmitype/StillImage" />
        <dc:title></dc:title>
      </cc:Work>
    </rdf:RDF>
  </metadata>
  <g
     id="layer1">
    <g
       id="g868"
       transform="translate(0,-4.8179378)">
      <g
         id="g936"
         transform="matrix(0.402895,0,0,0.402895,-4.6081294,30.5103)"
         style="stroke-width:2.48205">
        <path
           id="path870"
           style="fill:#467188;fill-opacity:1;stroke:none;stroke-width:4690.44;stroke-miterlimit:4;stroke-dasharray:none;paint-order:markers fill stroke"
           d="M 1000,43.228516 V 843.36914 h 956.7715 V 131.94727 c 0,-49.150243 -39.5683,-88.718754 -88.7188,-88.718754 z M 1956.7227,1870.8672 c -0.01,0.2766 -0.02,0.5521 -0.031,0.8281 0.011,-0.2758 0.023,-0.5516 0.031,-0.8281 z m -0.1426,2.9668 c -0.016,0.2446 -0.027,0.4903 -0.045,0.7344 0.017,-0.2442 0.029,-0.4897 0.045,-0.7344 z m -0.2774,3.4258 c -0.025,0.2456 -0.057,0.4894 -0.084,0.7343 0.027,-0.2451 0.059,-0.4886 0.084,-0.7343 z m -0.3339,2.7754 c -0.041,0.3051 -0.083,0.6099 -0.127,0.914 0.044,-0.3042 0.086,-0.6088 0.127,-0.914 z m -0.4532,2.998 c -0.035,0.2095 -0.067,0.42 -0.1035,0.6289 0.037,-0.2088 0.068,-0.4196 0.1035,-0.6289 z m -0.6074,3.248 c -0.05,0.2397 -0.1027,0.4779 -0.1543,0.7168 0.052,-0.2388 0.1046,-0.4771 0.1543,-0.7168 z m -0.6113,2.7266 c -0.064,0.2674 -0.1287,0.5344 -0.1953,0.8008 0.067,-0.2663 0.131,-0.5336 0.1953,-0.8008 z m -4.1543,12.8535 c -0.062,0.1502 -0.1212,0.3014 -0.1836,0.4512 0.062,-0.1498 0.122,-0.301 0.1836,-0.4512 z m -1.5528,3.5606 c -0.058,0.1253 -0.1172,0.25 -0.1757,0.375 0.059,-0.125 0.1178,-0.2497 0.1757,-0.375 z m -1.6738,3.4258 c -0.069,0.1341 -0.141,0.2666 -0.2109,0.4003 0.07,-0.1337 0.1417,-0.2662 0.2109,-0.4003 z m -3.6621,6.414 c -0.073,0.1161 -0.1434,0.2339 -0.2168,0.3496 0.073,-0.1158 0.144,-0.2334 0.2168,-0.3496 z m -2.0156,3.0703 c -0.125,0.1821 -0.2506,0.3639 -0.377,0.545 0.1264,-0.1812 0.2519,-0.3628 0.377,-0.545 z m -2.2695,3.1563 c -0.094,0.1247 -0.1887,0.2488 -0.2833,0.373 0.095,-0.1242 0.1893,-0.2483 0.2833,-0.373 z m -2.4063,3.0605 c -0.9026,1.0946 -1.8318,2.1675 -2.7852,3.2168 0.9534,-1.0493 1.8826,-2.1222 2.7852,-3.2168 z m -4.4004,4.9434 c -0.1504,0.1569 -0.3035,0.311 -0.4551,0.4668 0.1516,-0.1558 0.3047,-0.3099 0.4551,-0.4668 z m -1.6601,1.6855 c -0.2024,0.2002 -0.4071,0.3975 -0.6114,0.5957 0.2042,-0.1981 0.4091,-0.3956 0.6114,-0.5957 z m -1.6641,1.6016 c -0.2353,0.221 -0.4712,0.4417 -0.709,0.6602 0.2378,-0.2185 0.4736,-0.4391 0.709,-0.6602 z m -1.7207,1.5723 c -0.2631,0.2344 -0.5251,0.4698 -0.791,0.7011 0.2659,-0.2313 0.5279,-0.4667 0.791,-0.7011 z m -4.3281,3.623 c -0.207,0.162 -0.4186,0.3184 -0.627,0.4785 0.2085,-0.1602 0.42,-0.3165 0.627,-0.4785 z m -1.8418,1.4004 c -0.2801,0.2076 -0.5632,0.4108 -0.8457,0.6152 0.2824,-0.2043 0.5658,-0.4077 0.8457,-0.6152 z m -1.9239,1.3848 c -0.2723,0.1908 -0.5457,0.3805 -0.8203,0.5683 0.2746,-0.1878 0.548,-0.3775 0.8203,-0.5683 z m -2.0254,1.3769 c -0.2543,0.168 -0.5074,0.3366 -0.7636,0.502 0.2561,-0.1654 0.5094,-0.3341 0.7636,-0.502 z m -2.1328,1.3653 c -0.2092,0.1297 -0.4165,0.2625 -0.6269,0.3906 0.2105,-0.1281 0.4176,-0.2609 0.6269,-0.3906 z m -4.6972,2.7187 c -0.2593,0.1395 -0.5205,0.2752 -0.7813,0.4121 0.2607,-0.1369 0.5221,-0.2727 0.7813,-0.4121 z m -2.1211,1.1016 c -0.2879,0.1449 -0.5775,0.2878 -0.8672,0.4297 0.2898,-0.142 0.5792,-0.2847 0.8672,-0.4297 z m -2.1543,1.0488 c -0.2825,0.1327 -0.5655,0.2647 -0.8496,0.3945 0.2842,-0.1298 0.567,-0.2617 0.8496,-0.3945 z m -2.3672,1.0684 c -0.2229,0.097 -0.4441,0.1959 -0.668,0.291 0.2238,-0.095 0.4452,-0.1943 0.668,-0.291 z m -8.0137,3.0273 c -0.1368,0.044 -0.2731,0.089 -0.4101,0.1328 0.137,-0.043 0.2734,-0.089 0.4101,-0.1328 z m -3.5078,1.0566 c -0.1381,0.038 -0.2776,0.074 -0.416,0.1114 0.1385,-0.038 0.2778,-0.073 0.416,-0.1114 z m -3.3848,0.8672 c -0.099,0.023 -0.1961,0.049 -0.2949,0.072 0.099,-0.023 0.1963,-0.049 0.2949,-0.072 z m -3.3847,0.7246 c -0.2263,0.044 -0.4528,0.089 -0.6797,0.1309 0.227,-0.042 0.4533,-0.087 0.6797,-0.1309 z m -3.8321,0.6641 c -0.099,0.015 -0.1981,0.027 -0.2968,0.041 0.099,-0.014 0.1982,-0.026 0.2968,-0.041 z m -3.3398,0.4316 c -0.1817,0.02 -0.3628,0.043 -0.5449,0.062 0.1821,-0.019 0.3631,-0.042 0.5449,-0.062 z m -3.7109,0.3379 c -0.2378,0.017 -0.4766,0.03 -0.7149,0.045 0.2384,-0.015 0.477,-0.028 0.7149,-0.045 z"
           transform="scale(0.26458333)" />
        <path
           id="rect934"
           style="fill:#20283c;fill-opacity:1;stroke:none;stroke-width:4690.44;stroke-miterlimit:4;stroke-dasharray:none;paint-order:markers fill stroke"
           d="m 131.94727,43.228516 c -49.150236,0 -88.718754,39.568518 -88.718754,88.718754 V 1868.0527 c 0,49.1503 39.568518,88.7188 88.718754,88.7188 H 1000 V 843.36914 43.228516 Z"
           transform="scale(0.26458333)" />
        <path
           id="rect845-0"
           style="fill:#468880;fill-opacity:1;stroke:none;stroke-width:1241.02;stroke-miterlimit:4;stroke-dasharray:none;paint-order:markers fill stroke"
           d="M 264.58333,223.0944 V 517.6821 H 494.2556 c 13.00435,0 23.47352,-10.46917 23.47352,-23.47352 V 223.0944 Z" />
      </g>
      <g
         id="g874"
         transform="matrix(1.1342274,0,0,1.1342274,-142.52697,-18.10528)"
         style="stroke-width:0.881656">
        <g
           id="g913">
          <path
             d="m 506.71796,110.74625 q 7.92612,0 14.44166,2.48531 6.51553,2.48531 11.1503,7.12007 4.70193,4.63477 7.25441,11.28465 2.61965,6.58271 2.61965,14.84468 0,8.32914 -2.61965,15.04619 -2.55248,6.64988 -7.25441,11.35182 -4.63477,4.63476 -11.1503,7.18724 -6.51554,2.48531 -14.44166,2.48531 -7.99329,0 -14.576,-2.48531 -6.51554,-2.55248 -11.28465,-7.18724 -4.70193,-4.70194 -7.32158,-11.35182 -2.55248,-6.71705 -2.55248,-15.04619 0,-8.26197 2.55248,-14.84468 2.61965,-6.64988 7.32158,-11.28465 4.76911,-4.63476 11.28465,-7.12007 6.58271,-2.48531 14.576,-2.48531 z m 0,56.35605 q 7.18724,0 10.54577,-5.03778 3.42569,-5.10496 3.42569,-15.44922 0,-10.34426 -3.42569,-15.38204 -3.35853,-5.03779 -10.54577,-5.03779 -7.38876,0 -10.81445,5.03779 -3.4257,5.03778 -3.4257,15.38204 0,10.34426 3.4257,15.44922 3.42569,5.03778 10.81445,5.03778 z"
             style="font-style:normal;font-variant:normal;font-weight:900;font-stretch:normal;font-size:134.341px;line-height:1.25;font-family:Lato;-inkscape-font-specification:'Lato, Heavy';font-variant-ligatures:normal;font-variant-caps:normal;font-variant-numeric:normal;font-variant-east-asian:normal;text-align:end;letter-spacing:0px;word-spacing:0px;direction:rtl;text-anchor:end;fill:#d8a031;fill-opacity:1;stroke-width:0.233272"
             id="path871" />
          <path
             d="m 553.60296,181.47679 v -69.65581 h 12.35937 q 1.54492,0 2.55248,0.26868 1.07473,0.26869 1.74643,0.87322 0.73888,0.53736 1.07473,1.47775 0.40302,0.94039 0.6717,2.2838 l 1.1419,6.51554 q 3.82872,-5.91101 8.59783,-9.3367 4.7691,-3.4257 10.41142,-3.4257 4.76911,0 7.65744,2.2838 l -2.68682,15.31487 q -0.26868,1.41058 -1.07473,2.01512 -0.80604,0.53736 -2.14945,0.53736 -1.1419,0 -2.68682,-0.26868 -1.54492,-0.33585 -3.89589,-0.33585 -8.1948,0 -12.89674,8.73216 v 42.72044 z"
             style="font-style:normal;font-variant:normal;font-weight:900;font-stretch:normal;font-size:134.341px;line-height:1.25;font-family:Lato;-inkscape-font-specification:'Lato, Heavy';font-variant-ligatures:normal;font-variant-caps:normal;font-variant-numeric:normal;font-variant-east-asian:normal;text-align:end;letter-spacing:0px;word-spacing:0px;direction:rtl;text-anchor:end;fill:#d8a031;fill-opacity:1;stroke-width:0.233272"
             id="path873" />
          <path
             d="m 629.9084,80.92255 v 56.35605 h 3.08984 q 1.94795,0 2.95551,-0.53736 1.07472,-0.53737 2.01511,-1.94795 l 13.16542,-19.61378 q 1.1419,-1.74644 2.68682,-2.55248 1.61209,-0.80605 4.03023,-0.80605 h 19.07642 l -18.00169,24.78592 q -1.27624,1.74643 -2.82116,3.08984 -1.47775,1.34341 -3.22419,2.41814 3.02268,2.28379 5.2393,6.04534 l 19.61379,33.31657 h -18.80774 q -2.35097,0 -4.0974,-0.73887 -1.67927,-0.80605 -2.75399,-2.75399 l -13.16542,-24.65158 q -0.94039,-1.67926 -1.94795,-2.14945 -1.00755,-0.53737 -3.02267,-0.53737 h -4.03023 v 30.83126 H 609.08555 V 80.92255 Z"
             style="font-style:normal;font-variant:normal;font-weight:900;font-stretch:normal;font-size:134.341px;line-height:1.25;font-family:Lato;-inkscape-font-specification:'Lato, Heavy';font-variant-ligatures:normal;font-variant-caps:normal;font-variant-numeric:normal;font-variant-east-asian:normal;text-align:end;letter-spacing:0px;word-spacing:0px;direction:rtl;text-anchor:end;fill:#d8a031;fill-opacity:1;stroke-width:0.233272"
             id="path875" />
          <path
             d="m 729.05183,127.06868 q -0.80604,1.27624 -1.74643,1.81361 -0.87322,0.53736 -2.2838,0.53736 -1.47775,0 -2.9555,-0.60453 -1.47775,-0.67171 -3.22418,-1.41058 -1.67927,-0.73888 -3.82872,-1.34341 -2.14946,-0.67171 -4.90345,-0.67171 -3.96306,0 -6.11252,1.54492 -2.08228,1.47776 -2.08228,4.16458 0,1.94794 1.34341,3.22418 1.41058,1.27624 3.69438,2.2838 2.28379,0.94038 5.17213,1.8136 2.88833,0.87322 5.911,1.94794 3.02267,1.07473 5.911,2.55248 2.88834,1.41058 5.17213,3.56004 2.2838,2.08229 3.62721,5.10496 1.41058,3.02267 1.41058,7.25441 0,5.17213 -1.88077,9.53821 -1.88078,4.36609 -5.64233,7.5231 -3.69437,3.15701 -9.20236,4.90345 -5.44081,1.74643 -12.56088,1.74643 -3.56004,0 -7.12007,-0.67171 -3.56004,-0.6717 -6.91856,-1.8136 -3.29136,-1.1419 -6.11252,-2.68682 -2.82116,-1.61209 -4.83628,-3.42569 l 4.83628,-7.65744 q 0.87322,-1.34341 2.08229,-2.08229 1.20907,-0.80604 3.15701,-0.80604 1.8136,0 3.22418,0.80604 1.47775,0.80605 3.15702,1.74644 1.67926,0.94038 3.89589,1.74643 2.28379,0.80604 5.70949,0.80604 2.41814,0 4.0974,-0.47019 1.67926,-0.53736 2.68682,-1.41058 1.00756,-0.87322 1.47775,-1.94794 0.47019,-1.07473 0.47019,-2.21663 0,-2.08229 -1.41058,-3.4257 -1.41058,-1.34341 -3.69437,-2.28379 -2.2838,-1.00756 -5.2393,-1.81361 -2.88833,-0.87321 -5.91101,-1.94794 -3.02267,-1.07473 -5.97817,-2.55248 -2.88833,-1.54492 -5.17213,-3.82872 -2.2838,-2.35097 -3.69438,-5.70949 -1.41058,-3.35853 -1.41058,-8.12763 0,-4.43326 1.67926,-8.39632 1.74644,-4.03023 5.17213,-7.0529 3.4257,-3.02267 8.59783,-4.7691 5.17213,-1.81361 12.09069,-1.81361 3.76155,0 7.25441,0.67171 3.56004,0.6717 6.64988,1.88077 3.08984,1.20907 5.64232,2.88833 2.55248,1.6121 4.50043,3.56004 z"
             style="font-style:normal;font-variant:normal;font-weight:900;font-stretch:normal;font-size:134.341px;line-height:1.25;font-family:Lato;-inkscape-font-specification:'Lato, Heavy';font-variant-ligatures:normal;font-variant-caps:normal;font-variant-numeric:normal;font-variant-east-asian:normal;text-align:end;letter-spacing:0px;word-spacing:0px;direction:rtl;text-anchor:end;fill:#d8a031;fill-opacity:1;stroke-width:0.233272"
             id="path877" />
          <path
             d="m 745.5756,203.57589 v -91.75491 h 12.89673 q 1.94795,0 3.22419,0.87322 1.34341,0.87321 1.88077,2.61965 l 1.54492,5.10496 q 2.01512,-2.21663 4.29892,-4.03023 2.35096,-1.81361 4.97061,-3.08985 2.68682,-1.34341 5.70949,-2.08228 3.08985,-0.73888 6.71705,-0.73888 5.44082,0 10.07558,2.41814 4.63476,2.41814 7.99329,6.98573 3.35853,4.5676 5.2393,11.21748 1.94794,6.5827 1.94794,14.97902 0,7.85895 -2.21662,14.50883 -2.14946,6.64988 -6.11252,11.55332 -3.89589,4.90345 -9.40387,7.65744 -5.44081,2.75399 -12.09069,2.75399 -5.44081,0 -9.13519,-1.54492 -3.69437,-1.54492 -6.71705,-4.16457 v 26.73386 z m 33.98827,-77.17891 q -2.2838,0 -4.16457,0.47019 -1.8136,0.40303 -3.4257,1.20907 -1.54492,0.80605 -2.88833,2.08229 -1.34341,1.20907 -2.68682,2.82116 v 29.55502 q 2.35097,2.61965 5.10496,3.69438 2.75399,1.00756 5.77666,1.00756 2.88834,0 5.30647,-1.1419 2.41814,-1.1419 4.16457,-3.62721 1.81361,-2.55248 2.82117,-6.58271 1.00755,-4.03023 1.00755,-9.80689 0,-5.50798 -0.80604,-9.26953 -0.80605,-3.76155 -2.2838,-6.04535 -1.41058,-2.35096 -3.4257,-3.35852 -2.01511,-1.00756 -4.50042,-1.00756 z"
             style="font-style:normal;font-variant:normal;font-weight:900;font-stretch:normal;font-size:134.341px;line-height:1.25;font-family:Lato;-inkscape-font-specification:'Lato, Heavy';font-variant-ligatures:normal;font-variant-caps:normal;font-variant-numeric:normal;font-variant-east-asian:normal;text-align:end;letter-spacing:0px;word-spacing:0px;direction:rtl;text-anchor:end;fill:#d8a031;fill-opacity:1;stroke-width:0.233272"
             id="path879" />
          <path
             d="m 871.31866,181.47679 q -2.9555,0 -4.50042,-0.80604 -1.47775,-0.80605 -2.48531,-3.35853 l -1.47775,-3.82872 q -2.61965,2.21663 -5.03779,3.89589 -2.41814,1.67926 -5.03779,2.88833 -2.55247,1.1419 -5.50798,1.67926 -2.88833,0.60454 -6.44836,0.60454 -4.76911,0 -8.665,-1.20907 -3.89589,-1.27624 -6.64988,-3.69438 -2.68682,-2.41814 -4.16457,-5.97817 -1.47775,-3.62721 -1.47775,-8.32914 0,-3.69438 1.88077,-7.59027 1.88078,-3.89589 6.51554,-7.0529 4.63477,-3.22419 12.49371,-5.37364 7.85895,-2.14946 19.8153,-2.41814 v -2.9555 q 0,-6.11252 -2.55248,-8.79934 -2.4853,-2.75399 -7.12007,-2.75399 -3.69438,0 -6.04534,0.80605 -2.35097,0.80604 -4.23175,1.8136 -1.8136,1.00756 -3.56003,1.8136 -1.74644,0.80605 -4.16457,0.80605 -2.14946,0 -3.69438,-1.00756 -1.47775,-1.07473 -2.35097,-2.61965 l -3.76155,-6.51554 q 6.31403,-5.57515 13.97147,-8.26197 7.7246,-2.75399 16.52394,-2.75399 6.31403,0 11.35182,2.08229 5.10495,2.01511 8.59782,5.70949 3.56004,3.62721 5.44081,8.66499 1.88077,5.03779 1.88077,11.01597 v 43.52648 z m -23.9127,-12.69522 q 4.03023,0 7.05291,-1.41058 3.02267,-1.41058 6.11251,-4.5676 v -9.67255 q -6.24685,0.26868 -10.27708,1.07473 -4.03023,0.80604 -6.3812,2.01511 -2.35097,1.20907 -3.29136,2.75399 -0.87321,1.54492 -0.87321,3.35853 0,3.56003 1.94794,5.03779 1.94795,1.41058 5.70949,1.41058 z"
             style="font-style:normal;font-variant:normal;font-weight:900;font-stretch:normal;font-size:134.341px;line-height:1.25;font-family:Lato;-inkscape-font-specification:'Lato, Heavy';font-variant-ligatures:normal;font-variant-caps:normal;font-variant-numeric:normal;font-variant-east-asian:normal;text-align:end;letter-spacing:0px;word-spacing:0px;direction:rtl;text-anchor:end;fill:#d8a031;fill-opacity:1;stroke-width:0.233272"
             id="path881" />
          <path
             d="m 945.87785,128.34492 q -0.94039,1.1419 -1.81361,1.81361 -0.87321,0.6717 -2.4853,0.6717 -1.54493,0 -2.82117,-0.73887 -1.20906,-0.73888 -2.75399,-1.61209 -1.54492,-0.94039 -3.6272,-1.67927 -2.08229,-0.73887 -5.17213,-0.73887 -3.82872,0 -6.64988,1.41058 -2.75399,1.41058 -4.5676,4.03023 -1.8136,2.61965 -2.68682,6.44837 -0.87321,3.76154 -0.87321,8.53065 0,10.0084 3.82872,15.38204 3.89589,5.37365 10.68011,5.37365 3.6272,0 5.70949,-0.87322 2.14946,-0.94039 3.62721,-2.01512 1.47775,-1.1419 2.68682,-2.08228 1.27624,-0.94039 3.15701,-0.94039 2.48531,0 3.76155,1.8136 l 6.04534,7.45593 q -3.22418,3.69438 -6.78422,6.04535 -3.56003,2.28379 -7.32158,3.6272 -3.69438,1.27624 -7.45593,1.74644 -3.76155,0.53736 -7.32158,0.53736 -6.3812,0 -12.22503,-2.41814 -5.77667,-2.41814 -10.20992,-6.98573 -4.36608,-4.63477 -6.98573,-11.35182 -2.55248,-6.71705 -2.55248,-15.31487 0,-7.5231 2.21663,-14.03863 2.28379,-6.58271 6.64987,-11.35182 4.43326,-4.83628 10.88163,-7.59027 6.51553,-2.75399 15.04619,-2.75399 8.1948,0 14.37449,2.61965 6.17968,2.61965 11.1503,7.65744 z"
             style="font-style:normal;font-variant:normal;font-weight:900;font-stretch:normal;font-size:134.341px;line-height:1.25;font-family:Lato;-inkscape-font-specification:'Lato, Heavy';font-variant-ligatures:normal;font-variant-caps:normal;font-variant-numeric:normal;font-variant-east-asian:normal;text-align:end;letter-spacing:0px;word-spacing:0px;direction:rtl;text-anchor:end;fill:#d8a031;fill-opacity:1;stroke-width:0.233272"
             id="path883" />
          <path
             d="m 990.74751,110.74625 q 6.91856,0 12.62809,2.14946 5.7766,2.14946 9.874,6.24686 4.1646,4.0974 6.4484,10.07557 2.351,5.91101 2.351,13.4341 0,2.35097 -0.2016,3.82872 -0.2015,1.47775 -0.7388,2.35097 -0.5374,0.87321 -1.4778,1.20907 -0.8732,0.33585 -2.2838,0.33585 h -40.16794 q 1.00756,8.73216 5.30647,12.69522 4.29892,3.89589 11.08314,3.89589 3.6272,0 6.24685,-0.87321 2.61968,-0.87322 4.63478,-1.94795 2.0823,-1.07473 3.7615,-1.94794 1.7465,-0.87322 3.6272,-0.87322 2.4854,0 3.7616,1.8136 l 6.0453,7.45593 q -3.2241,3.69438 -6.9857,6.04535 -3.6944,2.28379 -7.6574,3.6272 -3.8959,1.27624 -7.85898,1.74644 -3.89589,0.53736 -7.45593,0.53736 -7.32158,0 -13.76995,-2.35097 -6.3812,-2.41814 -11.21747,-7.12007 -4.76911,-4.70194 -7.59027,-11.68767 -2.75399,-6.98573 -2.75399,-16.25526 0,-6.98573 2.35097,-13.23259 2.41813,-6.24686 6.85139,-10.94879 4.50042,-4.70194 10.81445,-7.45593 6.3812,-2.75399 14.37449,-2.75399 z m 0.40302,14.37449 q -5.97818,0 -9.3367,3.4257 -3.35853,3.35852 -4.43325,9.73972 h 25.99502 q 0,-2.48531 -0.6717,-4.83628 -0.6046,-2.35096 -2.0823,-4.16457 -1.41061,-1.88077 -3.76158,-3.02267 -2.35097,-1.1419 -5.70949,-1.1419 z"
             style="font-style:normal;font-variant:normal;font-weight:900;font-stretch:normal;font-size:134.341px;line-height:1.25;font-family:Lato;-inkscape-font-specification:'Lato, Heavy';font-variant-ligatures:normal;font-variant-caps:normal;font-variant-numeric:normal;font-variant-east-asian:normal;text-align:end;letter-spacing:0px;word-spacing:0px;direction:rtl;text-anchor:end;fill:#d8a031;fill-opacity:1;stroke-width:0.233272"
             id="path885" />
          <path
             d="m 1034.0051,181.47679 v -69.65581 h 12.3594 q 1.5449,0 2.5525,0.26868 1.0747,0.26869 1.7464,0.87322 0.7389,0.53736 1.0747,1.47775 0.4031,0.94039 0.6717,2.2838 l 1.1419,6.51554 q 3.8288,-5.91101 8.5979,-9.3367 4.7691,-3.4257 10.4114,-3.4257 4.7691,0 7.6574,2.2838 l -2.6868,15.31487 q -0.2687,1.41058 -1.0747,2.01512 -0.8061,0.53736 -2.1495,0.53736 -1.1419,0 -2.6868,-0.26868 -1.5449,-0.33585 -3.8959,-0.33585 -8.1948,0 -12.8967,8.73216 v 42.72044 z"
             style="font-style:normal;font-variant:normal;font-weight:900;font-stretch:normal;font-size:134.341px;line-height:1.25;font-family:Lato;-inkscape-font-specification:'Lato, Heavy';font-variant-ligatures:normal;font-variant-caps:normal;font-variant-numeric:normal;font-variant-east-asian:normal;text-align:end;letter-spacing:0px;word-spacing:0px;direction:rtl;text-anchor:end;fill:#d8a031;fill-opacity:1;stroke-width:0.233272"
             id="path887" />
          <path
             d="m 438.97745,86.869526 36.54076,-0.671705 v 11.553326 l -11.95635,4.030233 5.2393,-6.045348 -23.9127,85.440878 h -22.03193 l -18.27037,-67.03616 4.16457,0.13434 -19.07643,66.90182 h -21.76324 l -21.76324,-83.425763 1.88077,3.627203 -8.8665,-2.955498 V 86.869526 l 38.42152,-0.671705 v 11.553326 l -10.47859,4.164573 2.82116,-4.164573 13.16541,62.602903 h -4.83627 l 19.3451,-73.484524 21.36022,-0.671705 18.80774,73.887549 -4.70193,0.13434 15.31487,-62.468563 1.88078,4.164573 -11.28465,-3.492868 z"
             style="font-style:normal;font-variant:normal;font-weight:normal;font-stretch:normal;font-size:134.341px;line-height:1.25;font-family:Bitter;-inkscape-font-specification:'Bitter, @wght=800';font-variant-ligatures:normal;font-variant-caps:normal;font-variant-numeric:normal;font-variant-east-asian:normal;font-variation-settings:'wght' 800;text-align:end;letter-spacing:0px;word-spacing:0px;direction:rtl;text-anchor:end;fill:#d8a031;fill-opacity:1;stroke-width:0.233272"
             id="path890" />
        </g>
      </g>
    </g>
  </g>
</svg>
